Coordinates
version=1
nRows=17
nColumns=38
inDegrees=no

Units are S.I. units (second, meters, Newtons, ...)
If the header above contains a line with 'inDegrees', this indicates whether rotational values are in degrees (yes) or radians (no).

endheader
time	pelvis_tilt	pelvis_list	pelvis_rotation	pelvis_tx	pelvis_ty	pelvis_tz	hip_flexion_r	hip_adduction_r	hip_rotation_r	knee_angle_r	ankle_angle_r	subtalar_angle_r	mtp_angle_r	hip_flexion_l	hip_adduction_l	hip_rotation_l	knee_angle_l	ankle_angle_l	subtalar_angle_l	mtp_angle_l	lumbar_extension	lumbar_bending	lumbar_rotation	arm_flex_r	arm_add_r	arm_rot_r	elbow_flex_r	pro_sup_r	wrist_flex_r	wrist_dev_r	arm_flex_l	arm_add_l	arm_rot_l	elbow_flex_l	pro_sup_l	wrist_flex_l	wrist_dev_l
10	2.64904	1.37516	-1.02856	0.720317	1.51327	0.986845	0.0198804	0.120238	-0.335416	0.293981	0.0134259	0	0	0.0155713	-0.134774	-0.0872842	0.310806	0.106277	0	0	-0.254833	0.158765	0.000132544	0.787599	-0.212189	0.551876	1.09239	1.5708	0	0	0.834635	-0.126101	0.480076	0.788617	1.5708	0	0
10.01	2.646	1.37567	-1.02246	0.720485	1.51192	0.986581	0.0227718	0.11992	-0.339709	0.295309	0.0131675	0	0	0.0151869	-0.135817	-0.0842269	0.31287	0.117157	0	0	-0.253816	0.159661	-0.000943372	0.783965	-0.214267	0.550089	1.09926	1.5708	0	0	0.833227	-0.126358	0.480065	0.791234	1.5708	0	0
10.02	2.64401	1.37598	-1.01785	0.72065	1.51064	0.986363	0.0253191	0.119713	-0.343004	0.296592	0.0126794	0	0	0.0137327	-0.136753	-0.0820888	0.315347	0.128096	0	0	-0.252871	0.160299	-0.00165046	0.779747	-0.216111	0.547627	1.10575	1.5708	0	0	0.831725	-0.126555	0.480355	0.793856	1.5708	0	0
10.03	2.64317	1.37605	-1.01472	0.720796	1.5094	0.98621	0.027549	0.119685	-0.345103	0.297766	0.0116171	0	0	0.0113175	-0.137617	-0.0810087	0.318492	0.138719	0	0	-0.252114	0.160699	-0.00216052	0.775009	-0.217779	0.544722	1.11145	1.5708	0	0	0.830142	-0.126784	0.481044	0.796448	1.5708	0	0
10.04	2.64424	1.37582	-1.01381	0.720913	1.50821	0.986138	0.0292928	0.119636	-0.346507	0.298824	0.0103428	0	0	0.00771188	-0.138277	-0.0808097	0.322031	0.148629	0	0	-0.251702	0.160858	-0.0023623	0.770078	-0.219524	0.541719	1.1167	1.5708	0	0	0.828583	-0.126981	0.482326	0.798843	1.5708	0	0
10.05	2.64687	1.37538	-1.01457	0.72101	1.50707	0.986147	0.0305911	0.119484	-0.347788	0.299819	0.00904499	0	0	0.00307535	-0.138826	-0.0813082	0.325878	0.157853	0	0	-0.251431	0.160771	-0.00247301	0.764719	-0.221102	0.538213	1.12191	1.5708	0	0	0.826904	-0.127185	0.484064	0.801179	1.5708	0	0
10.06	2.65062	1.37481	-1.01651	0.721082	1.50598	0.986206	0.0313953	0.119337	-0.34881	0.300404	0.00758765	0	0	-0.00236342	-0.139348	-0.0822175	0.330087	0.16672	0	0	-0.251197	0.160522	-0.00262772	0.75899	-0.222388	0.534036	1.12723	1.5708	0	0	0.825079	-0.127481	0.486026	0.803664	1.5708	0	0
10.07	2.65497	1.37421	-1.01921	0.72113	1.50492	0.986293	0.0319253	0.119173	-0.34958	0.300668	0.0059562	0	0	-0.00830438	-0.139773	-0.083842	0.334935	0.174901	0	0	-0.250892	0.160181	-0.0027539	0.752944	-0.223469	0.52959	1.13279	1.5708	0	0	0.82313	-0.127879	0.488239	0.80629	1.5708	0	0
10.08	2.65971	1.37351	-1.0228	0.721146	1.50387	0.986395	0.0323213	0.118942	-0.35002	0.300888	0.00417578	0	0	-0.0147741	-0.140206	-0.086404	0.340734	0.183237	0	0	-0.250695	0.159836	-0.00256024	0.746935	-0.224339	0.524711	1.13826	1.5708	0	0	0.821052	-0.128283	0.490404	0.809171	1.5708	0	0
10.09	2.66474	1.37277	-1.02689	0.721125	1.50284	0.986494	0.0326991	0.118583	-0.350219	0.301265	0.00243428	0	0	-0.0216259	-0.14065	-0.0894724	0.347384	0.191332	0	0	-0.250484	0.159534	-0.00225648	0.741055	-0.225343	0.519971	1.14408	1.5708	0	0	0.818707	-0.128657	0.492214	0.812426	1.5708	0	0
10.1	2.66957	1.37208	-1.03083	0.721061	1.50183	0.986561	0.0331715	0.118148	-0.350517	0.301797	0.000830823	0	0	-0.0285964	-0.141142	-0.092529	0.354988	0.198941	0	0	-0.250003	0.159257	-0.00206693	0.7349	-0.226276	0.51476	1.15011	1.5708	0	0	0.816039	-0.128948	0.49363	0.815763	1.5708	0	0
10.11	2.67301	1.37146	-1.03345	0.72092	1.5008	0.986586	0.0341204	0.117653	-0.351013	0.302917	-0.000602516	0	0	-0.0354373	-0.141832	-0.0957005	0.363482	0.206219	0	0	-0.249184	0.159343	-0.00198741	0.728718	-0.22735	0.509452	1.15632	1.5708	0	0	0.813002	-0.129168	0.494799	0.819196	1.5708	0	0
10.12	2.67588	1.37083	-1.0354	0.720674	1.49975	0.986584	0.0353173	0.116976	-0.351998	0.304458	-0.00179652	0	0	-0.0424055	-0.142545	-0.0982911	0.372496	0.212703	0	0	-0.248166	0.159768	-0.00229672	0.722813	-0.22849	0.505052	1.1622	1.5708	0	0	0.809572	-0.129241	0.495266	0.82263	1.5708	0	0
10.13	2.67798	1.37024	-1.03644	0.720298	1.49867	0.986552	0.0366582	0.116245	-0.35309	0.306026	-0.00295559	0	0	-0.0492439	-0.143287	-0.10062	0.382282	0.218152	0	0	-0.246954	0.160527	-0.00289236	0.717273	-0.229975	0.501348	1.16775	1.5708	0	0	0.805904	-0.129039	0.49539	0.826108	1.5708	0	0
10.14	2.6799	1.36967	-1.03705	0.719911	1.49756	0.986503	0.0380219	0.115609	-0.354191	0.30755	-0.00395625	0	0	-0.0559803	-0.1442	-0.102504	0.39286	0.22259	0	0	-0.245559	0.161244	-0.00391032	0.711918	-0.231364	0.498379	1.17264	1.5708	0	0	0.802131	-0.128877	0.495523	0.829689	1.5708	0	0
10.15	2.68079	1.36919	-1.03628	0.7195	1.49641	0.986436	0.0394846	0.115158	-0.355223	0.308655	-0.00518934	0	0	-0.0625763	-0.145303	-0.103473	0.403873	0.22642	0	0	-0.243837	0.162124	-0.00540229	0.706732	-0.232949	0.496379	1.17714	1.5708	0	0	0.79805	-0.128723	0.494954	0.833359	1.5708	0	0
10.16	2.68068	1.3687	-1.03438	0.719017	1.49522	0.986347	0.0411042	0.114743	-0.356556	0.309786	-0.00634607	0	0	-0.0692043	-0.146613	-0.103907	0.415187	0.229976	0	0	-0.24193	0.163234	-0.00720977	0.701515	-0.234351	0.494056	1.18129	1.5708	0	0	0.7937	-0.128461	0.493641	0.83726	1.5708	0	0
